<?xml version="1.0" encoding="UTF-8"?>
<svg version="1.1" xmlns="http://www.w3.org/2000/svg" width="512" height="512">
<path d="M0 0 C1.83306661 -0.00230696 3.66613229 -0.00548507 5.49919605 -0.00945449 C10.51543058 -0.0177787 15.53158868 -0.01368801 20.54782343 -0.00748205 C25.96575588 -0.00294885 31.38367537 -0.00994563 36.80160522 -0.01544189 C47.40709759 -0.02432826 58.01256163 -0.02241725 68.61805511 -0.01661661 C77.23850598 -0.01209716 85.85894892 -0.01148845 94.47940063 -0.01366425 C95.70699468 -0.01397071 96.93458873 -0.01427718 98.1993826 -0.01459293 C100.69333069 -0.01523239 103.18727877 -0.01588082 105.68122685 -0.01653811 C129.0589099 -0.02223919 152.43657726 -0.015687 175.81425774 -0.00493738 C195.86698366 0.00410559 215.9196866 0.00244582 235.97241211 -0.0067749 C259.26728922 -0.01748145 282.56215259 -0.02168989 305.85703182 -0.01555037 C308.34173012 -0.01491329 310.82642841 -0.01428454 313.31112671 -0.01366425 C314.53359897 -0.01335569 315.75607123 -0.01304714 317.0155881 -0.01272924 C325.62421583 -0.01100346 334.23283481 -0.0139149 342.84146118 -0.01862335 C353.3345789 -0.02423645 363.8276667 -0.02270669 374.32078099 -0.01206186 C379.67299117 -0.00681096 385.0251515 -0.00473855 390.3773613 -0.01136017 C395.27991996 -0.01733369 400.18238269 -0.01402133 405.08493268 -0.00340506 C406.85531182 -0.00117699 408.62569912 -0.00229396 410.39607298 -0.00715664 C424.98020498 -0.0441318 439.33849297 0.02986734 450.70776367 10.44146729 C456.61444793 16.7949929 460.01567228 24.75069363 460.02948475 33.36078072 C460.03394259 34.64657654 460.03840044 35.93237236 460.04299337 37.2571317 C460.04290407 38.69236637 460.04271421 40.12760104 460.04243469 41.56283569 C460.04573321 43.08106292 460.04945875 44.59928927 460.05357617 46.11751449 C460.06360577 50.30054298 460.06731451 54.48355712 460.06996548 58.66659594 C460.07386572 63.17392113 460.08344428 67.68123493 460.09217834 72.18855286 C460.11195121 83.07954064 460.12201023 93.97052936 460.13090613 104.8615306 C460.13528789 109.98879196 460.14065501 115.11605229 460.145895 120.24331284 C460.16290848 137.28518268 460.17740282 154.32705188 460.18464375 171.36892891 C460.18655368 175.79252244 460.18847401 180.21611596 460.19042969 184.63970947 C460.19091343 185.73918903 460.19139717 186.83866858 460.19189557 187.97146569 C460.20019649 205.78374068 460.22553394 223.59594853 460.25801037 241.4081942 C460.29107292 259.69080462 460.3090918 277.97338091 460.31228799 296.25602138 C460.31445388 306.52298893 460.3232141 316.78985859 460.34874916 327.05679703 C460.3704452 335.80044643 460.37851199 344.54397417 460.36878238 353.28764744 C460.36423444 357.74851536 460.36615255 362.20913218 460.38554382 366.66996574 C460.40315317 370.75619419 460.40219602 374.84198794 460.38664653 378.92822085 C460.38426706 380.40406071 460.3886117 381.87993049 460.40047518 383.35572459 C460.46220824 391.54443885 460.12923732 398.1138365 455.89526367 405.25396729 C455.43764648 406.05189697 454.9800293 406.84982666 454.50854492 407.67193604 C450.71836069 412.82795242 446.4798416 416.15785413 440.89526367 419.25396729 C440.00774414 419.76636963 440.00774414 419.76636963 439.10229492 420.28912354 C434.40743837 422.51736671 429.72186846 422.3905538 424.61791992 422.32427979 C423.87481567 422.3192041 423.13171143 422.31412842 422.36608887 422.30889893 C420.54243623 422.2957106 418.71883645 422.27553542 416.89526367 422.25396729 C416.90636673 423.00850189 416.91746979 423.7630365 416.9289093 424.54043579 C417.02954986 431.68930938 417.10544873 438.83783423 417.15432453 445.98723412 C417.18029805 449.66190455 417.21546671 453.33598434 417.27246094 457.01031494 C417.32722534 460.56357153 417.35677603 464.11626402 417.36964989 467.66991043 C417.38323644 469.66950357 417.42219771 471.66887317 417.46174622 473.66812134 C417.46462943 483.13897038 415.62638047 489.71612253 409.58276367 497.06646729 C398.40427345 506.16523839 387.9546463 506.55499274 373.83399963 506.50793457 C372.31940545 506.51024214 370.80481238 506.51342064 369.29022163 506.51738906 C365.14964352 506.52570513 361.00915811 506.52162633 356.86857975 506.51541662 C352.39474109 506.51088001 347.92091805 506.51788191 343.44708252 506.52337646 C334.69099604 506.53225942 325.93494389 506.53035328 317.17885608 506.52455118 C310.06057402 506.5200301 302.94230156 506.51942373 295.82401848 506.52159882 C294.30297839 506.52205852 294.30297839 506.52205852 292.75121022 506.5225275 C290.69106961 506.52316697 288.63092899 506.5238154 286.57078838 506.52447268 C267.26243646 506.53017284 247.95410355 506.52362317 228.64575475 506.51287195 C212.08885953 506.50393808 195.53199237 506.50548774 178.97509766 506.51470947 C159.73626984 506.52541999 140.49745869 506.52962212 121.25862831 506.52348495 C119.20586042 506.52284787 117.15309253 506.52221912 115.10032463 506.52159882 C114.09039387 506.52129026 113.08046312 506.52098171 112.0399284 506.52066381 C104.93312998 506.51893912 97.82634214 506.52184715 90.71954536 506.52655792 C82.05446128 506.53217549 73.38941342 506.53063194 64.72433347 506.51999643 C60.30577457 506.51475132 55.88727599 506.51266317 51.46871758 506.51929474 C47.41915672 506.52528043 43.36971177 506.52193608 39.32016134 506.51133963 C37.85997925 506.50911666 36.39978726 506.51021694 34.93961162 506.51509121 C20.49159762 506.55959821 9.80316253 505.81040397 -0.91723633 495.56646729 C-6.84839321 486.58500115 -7.67188181 477.82257777 -7.49536133 467.27349854 C-7.48970154 465.97949631 -7.48404175 464.68549408 -7.47821045 463.35227966 C-7.46310716 459.95069121 -7.42396374 456.54981143 -7.37939453 453.14849854 C-7.33810592 449.66226787 -7.3201286 446.17592007 -7.30004883 442.68951416 C-7.25744957 435.87737836 -7.18939058 429.06570706 -7.10473633 422.25396729 C-8.32725098 422.27789551 -9.54976562 422.30182373 -10.80932617 422.32647705 C-12.43643552 422.34583343 -14.06355195 422.36460104 -15.69067383 422.38287354 C-16.4936792 422.40015503 -17.29668457 422.41743652 -18.12402344 422.4352417 C-27.9587194 422.51790725 -36.18066879 419.15146554 -43.35083008 412.35552979 C-48.79975856 405.82652416 -52.22533067 398.64012979 -52.23895741 390.14994717 C-52.24341525 388.86476804 -52.24787309 387.57958892 -52.25246602 386.25546497 C-52.25237672 384.82091931 -52.25218686 383.38637364 -52.25190735 381.951828 C-52.25520587 380.43431347 -52.25893142 378.91679982 -52.26304883 377.39928728 C-52.27307847 373.21818941 -52.27678718 369.03710589 -52.27943814 364.85599768 C-52.28333839 360.35069837 -52.292917 355.84541045 -52.301651 351.34011841 C-52.32142444 340.45357472 -52.33148324 329.5670301 -52.34037879 318.68047294 C-52.3447607 313.55483476 -52.3501278 308.42919762 -52.35536766 303.30356026 C-52.37238166 286.26598163 -52.38687566 269.22840365 -52.3941164 252.19081783 C-52.39602633 247.76826413 -52.39794665 243.34571042 -52.39990234 238.92315674 C-52.40038608 237.8239395 -52.40086982 236.72472225 -52.40136822 235.5921954 C-52.40966785 217.78706247 -52.43500286 199.98199675 -52.46748302 182.17689317 C-52.50055228 163.89992798 -52.51856509 145.62299695 -52.52176064 127.34600168 C-52.52392598 117.08291462 -52.53267802 106.81992552 -52.55822182 96.5568676 C-52.57992706 87.81580862 -52.58798012 79.07487138 -52.57825503 70.33378851 C-52.57370969 65.87482189 -52.57561015 61.41610648 -52.59501648 56.9571743 C-52.61264443 52.87151042 -52.61165356 48.78628108 -52.59611919 44.70061261 C-52.59374253 43.22610084 -52.59806973 41.75155901 -52.60994784 40.27709316 C-52.70657776 27.48512327 -50.55957877 18.79009414 -41.58911133 9.45318604 C-29.93658335 -0.86186625 -14.63918697 -0.04020939 0 0 Z " fill="#53515E" transform="translate(52.104736328125,2.74603271484375)"/>
<path d="M0 0 C1.5646585 -0.00461345 3.12931265 -0.01096934 4.69395781 -0.01890898 C8.97756345 -0.03556458 13.26081138 -0.02737319 17.5444181 -0.0149641 C22.17026646 -0.00590046 26.79605403 -0.01988986 31.42189026 -0.03088379 C40.47759909 -0.04865956 49.53317523 -0.04483321 58.58888924 -0.03323323 C65.94940219 -0.02419548 73.30987799 -0.02297639 80.6703949 -0.02732849 C81.71843889 -0.02794142 82.76648289 -0.02855436 83.84628579 -0.02918586 C85.97544341 -0.03046478 88.10460103 -0.03176163 90.23375863 -0.03307623 C110.19350252 -0.04447927 130.15317289 -0.03137264 150.11290473 -0.00987476 C167.23501529 0.00799596 184.35701737 0.00489177 201.47912598 -0.0135498 C221.36800628 -0.03496137 241.25682216 -0.04338066 261.14571238 -0.03110075 C263.26698715 -0.02982657 265.38826194 -0.02856909 267.50953674 -0.02732849 C268.55321324 -0.02671139 269.59688973 -0.02609429 270.67219278 -0.02545848 C278.0228869 -0.02200645 285.37354012 -0.02783078 292.72422791 -0.0372467 C301.68367836 -0.04847123 310.64298865 -0.04541705 319.60242307 -0.02412373 C324.1726804 -0.01361947 328.74270413 -0.00948087 333.31295967 -0.02272034 C337.49889152 -0.03466297 341.68437384 -0.02805102 345.87026507 -0.00681013 C347.38225473 -0.00235198 348.89428257 -0.00459266 350.40624756 -0.01431328 C361.96081035 -0.08288499 370.21632904 1.5779197 378.86340332 9.57043457 C383.44553643 14.71237579 385.70319356 20.87023136 385.74386597 27.69874573 C385.75246643 28.77384399 385.76106689 29.84894226 385.76992798 30.95661926 C385.7763179 32.72624275 385.7763179 32.72624275 385.78283691 34.53161621 C385.7910144 35.77420197 385.79919189 37.01678772 385.80761719 38.29702759 C385.83248516 42.42071206 385.84914745 46.54435982 385.86340332 50.66809082 C385.86876491 52.09028059 385.87414242 53.51247031 385.87953568 54.93465996 C385.90116544 60.85467811 385.91989844 66.77469358 385.93115807 72.69474125 C385.94737195 81.16269118 385.98048556 89.63018042 386.03755891 98.09795672 C386.07636331 104.05990753 386.09580339 110.0217357 386.10107863 115.98380941 C386.10471926 119.5401012 386.11660038 123.0959014 386.14918137 126.65205574 C386.185082 130.62766868 386.18086447 134.60271227 386.17346191 138.57849121 C386.18986725 139.74407059 386.20627258 140.90964996 386.22317505 142.11054993 C386.15565096 150.99773338 383.94004677 157.43351179 378.27746582 164.32043457 C367.0989756 173.41920568 356.64934845 173.80896003 342.52870178 173.76190186 C341.01410759 173.76420942 339.49951453 173.76738793 337.98492378 173.77135634 C333.84434567 173.77967241 329.70386025 173.77559362 325.56328189 173.76938391 C321.08944323 173.76484729 316.6156202 173.7718492 312.14178467 173.77734375 C303.38569819 173.78622671 294.62964604 173.78432056 285.87355823 173.77851847 C278.75527617 173.77399738 271.63700371 173.77339101 264.51872063 173.7755661 C262.99768054 173.7760258 262.99768054 173.7760258 261.44591237 173.77649479 C259.38577175 173.77713425 257.32563114 173.77778268 255.26549052 173.77843997 C235.95713861 173.78414012 216.6488057 173.77759045 197.3404569 173.76683924 C180.78356168 173.75790537 164.22669451 173.75945503 147.6697998 173.76867676 C128.43097199 173.77938727 109.19216083 173.78358941 89.95333046 173.77745223 C87.90056257 173.77681515 85.84779467 173.77618641 83.79502678 173.7755661 C82.78509602 173.77525755 81.77516526 173.774949 80.73463054 173.7746311 C73.62783212 173.7729064 66.52104429 173.77581443 59.41424751 173.78052521 C50.74916343 173.78614277 42.08411557 173.78459923 33.41903562 173.77396372 C29.00047672 173.7687186 24.58197814 173.76663045 20.16341972 173.77326202 C16.11385887 173.77924772 12.06441392 173.77590337 8.01486348 173.76530692 C6.5546814 173.76308395 5.09448941 173.76418422 3.63431377 173.7690585 C-10.81370023 173.8135655 -21.50213533 173.06437125 -32.22253418 162.82043457 C-37.61017427 154.66200814 -39.00061808 146.5361145 -38.83581543 136.91809082 C-38.83311646 135.8077951 -38.83041748 134.69749939 -38.82763672 133.55355835 C-38.81313288 129.89206379 -38.76889823 126.23165428 -38.72253418 122.57043457 C-38.70203208 119.99109824 -38.68277055 117.41175178 -38.66467285 114.83239746 C-38.62852531 110.03454009 -38.58173945 105.23693084 -38.52509022 100.43927288 C-38.43663241 92.92648219 -38.38800957 85.4144941 -38.36890888 77.90121174 C-38.35262917 71.68556822 -38.31811455 65.47021096 -38.26991558 59.25473309 C-38.24105089 55.48979708 -38.21935506 51.72516585 -38.21585083 47.96011353 C-38.21166981 44.40018176 -38.18312516 40.84121562 -38.13691711 37.28158951 C-38.11775881 35.35500521 -38.12287691 33.42822652 -38.12890625 31.5015564 C-37.96575026 21.75181362 -35.76636943 14.51145414 -28.66003418 7.63293457 C-20.11480615 0.23945466 -10.7829101 -0.06932476 0 0 Z " fill="#FE6B5C" transform="translate(83.4100341796875,335.4920654296875)"/>
<path d="M0 0 C51.48 0 102.96 0 156 0 C156.1613254 77.93361018 156.1613254 77.93361018 156.1953125 110.46679688 C156.20314392 117.91333043 156.21122583 125.35986366 156.21972656 132.80639648 C156.22078156 133.73969046 156.22183655 134.67298444 156.22292352 135.63456005 C156.24031795 150.69937652 156.27185167 165.76413189 156.30861118 180.82891213 C156.34602512 196.29091146 156.36823681 211.7528788 156.37635398 227.21492153 C156.38184081 236.75486607 156.39916682 246.29463796 156.43166587 255.83452935 C156.45281933 262.37752621 156.45919816 268.92043389 156.45400551 275.46346246 C156.45144502 279.23776747 156.45535368 283.01177088 156.4768219 286.78602219 C156.49994876 290.88187229 156.49193944 294.97708211 156.48101807 299.07298279 C156.49266943 300.26074308 156.5043208 301.44850338 156.51632524 302.67225641 C156.44120572 313.09232479 153.23362557 321.39747556 146 329 C143.15769722 331.33079374 140.21185213 333.21933587 137 335 C136.11248047 335.51240234 136.11248047 335.51240234 135.20703125 336.03515625 C130.5121747 338.26339942 125.82660479 338.13658651 120.72265625 338.0703125 C119.979552 338.06523682 119.23644775 338.06016113 118.4708252 338.05493164 C116.64717256 338.04174331 114.82357278 338.02156814 113 338 C112.99635437 337.1806044 112.99270874 336.3612088 112.98895264 335.51698303 C112.95095777 327.7641164 112.89397594 320.01172422 112.81609726 312.25916386 C112.77672464 308.2742412 112.74448656 304.28953613 112.72900391 300.30444336 C112.71376931 296.45270333 112.67920536 292.60156191 112.63169098 288.75008965 C112.61694677 287.28667872 112.60896301 285.8231823 112.60811615 284.35969734 C112.59538366 273.3812022 111.31508539 264.8390313 103.71484375 256.50390625 C98.24824267 251.70973446 91.87162804 249.87692083 84.73701286 249.86577892 C84.09635407 249.86342669 83.45569528 249.86107446 82.79562259 249.85865095 C80.63422917 249.85195793 78.47289584 249.85241927 76.31149292 249.85282898 C74.75201772 249.84953054 73.19254337 249.84580501 71.63307011 249.8416875 C67.33602592 249.83165705 63.0389957 249.82794903 58.74194145 249.82529819 C54.11191589 249.82139821 49.48190142 249.81181963 44.85188293 249.80308533 C33.66426655 249.78331179 22.47664925 249.77325338 11.28901976 249.76435754 C6.0222907 249.75997591 0.75556265 249.75460876 -4.51116562 249.74936867 C-22.01626693 249.73235516 -39.5213676 249.71786076 -57.02647591 249.71061993 C-61.57038499 249.70870999 -66.11429406 249.70678966 -70.65820312 249.70483398 C-71.78758883 249.70435024 -72.91697453 249.7038665 -74.08058403 249.7033681 C-92.37784766 249.69506697 -110.67504592 249.66972918 -128.97228099 249.63725331 C-147.75209683 249.60419232 -166.53187945 249.58617202 -185.31172454 249.58297569 C-195.85814775 249.58080965 -206.40447565 249.57204737 -216.95087051 249.54651451 C-225.93240477 249.52482062 -234.91382058 249.51675063 -243.89537807 249.52648129 C-248.47775945 249.53102984 -253.05989639 249.52910753 -257.64224434 249.50971985 C-261.83949439 249.49211494 -266.03632119 249.49306408 -270.23357557 249.50861714 C-271.74979187 249.51099729 -273.26603727 249.50664852 -274.78220905 249.49478849 C-284.92900019 249.42035054 -293.3763103 250.3049372 -301.3125 257.1875 C-301.92738281 257.69667969 -302.54226563 258.20585937 -303.17578125 258.73046875 C-309.71114781 266.86119245 -309.60368704 275.77274528 -309.609375 285.75390625 C-309.62437958 287.26563773 -309.64111146 288.77735295 -309.65948486 290.28904724 C-309.70291582 294.239439 -309.72310304 298.18960974 -309.73822021 302.14019775 C-309.75787955 306.18278951 -309.79983918 310.22514557 -309.83984375 314.26757812 C-309.91488254 322.17832331 -309.96533256 330.0889753 -310 338 C-313.06273831 338.05410136 -316.12451452 338.09372225 -319.1875 338.125 C-320.05181641 338.14175781 -320.91613281 338.15851563 -321.80664062 338.17578125 C-322.64775391 338.18222656 -323.48886719 338.18867188 -324.35546875 338.1953125 C-325.12528076 338.20578613 -325.89509277 338.21625977 -326.68823242 338.22705078 C-329.39912671 337.96079968 -331.52392304 337.10686194 -334 336 C-334.04646827 326.11590352 -334.0819426 316.2318333 -334.10362434 306.34764957 C-334.11403376 301.75736172 -334.12814073 297.16714895 -334.15087891 292.5769043 C-334.17270905 288.14189866 -334.18458998 283.70696496 -334.18975449 279.27190971 C-334.19343205 277.58514716 -334.20061316 275.89838826 -334.21146011 274.21165657 C-334.28999849 261.48538038 -334.10678966 250.52272035 -326 240 C-319.28641008 233.51791318 -311.04816963 229.87314512 -301.71327591 229.87695217 C-300.63590927 229.87496112 -299.55854264 229.87297007 -298.44852853 229.87091869 C-296.67422389 229.87528795 -296.67422389 229.87528795 -294.86407471 229.87974548 C-293.60700643 229.87889106 -292.34993816 229.87803663 -291.05477691 229.87715632 C-287.56351966 229.87491767 -284.07229302 229.87892405 -280.58103967 229.88393438 C-276.8169303 229.88824771 -273.05282269 229.88679183 -269.28871155 229.8860321 C-262.76644735 229.88550743 -256.24419314 229.88864834 -249.72193146 229.89426994 C-240.29180429 229.90239258 -230.86168195 229.90500095 -221.43155167 229.90625793 C-206.13226217 229.90844725 -190.83297801 229.91510408 -175.53369141 229.92456055 C-160.67073594 229.93373777 -145.80778194 229.94080563 -130.94482422 229.94506836 C-130.01952278 229.94533636 -129.09422134 229.94560435 -128.14088047 229.94588047 C-120.90455249 229.94795986 -113.66822447 229.9499168 -106.43189645 229.95183504 C-70.95459274 229.96127089 -35.47730237 229.98138868 0 230 C0 154.1 0 78.2 0 0 Z " fill="#4E4C5A" transform="translate(356,87)"/>
<path d="M0 0 C1.83306661 -0.00230696 3.66613229 -0.00548507 5.49919605 -0.00945449 C10.51543058 -0.0177787 15.53158868 -0.01368801 20.54782343 -0.00748205 C25.96575588 -0.00294885 31.38367537 -0.00994563 36.80160522 -0.01544189 C47.40709759 -0.02432826 58.01256163 -0.02241725 68.61805511 -0.01661661 C77.23850598 -0.01209716 85.85894892 -0.01148845 94.47940063 -0.01366425 C95.70699468 -0.01397071 96.93458873 -0.01427718 98.1993826 -0.01459293 C100.69333069 -0.01523239 103.18727877 -0.01588082 105.68122685 -0.01653811 C129.0589099 -0.02223919 152.43657726 -0.015687 175.81425774 -0.00493738 C195.86698366 0.00410559 215.9196866 0.00244582 235.97241211 -0.0067749 C259.26728922 -0.01748145 282.56215259 -0.02168989 305.85703182 -0.01555037 C308.34173012 -0.01491329 310.82642841 -0.01428454 313.31112671 -0.01366425 C314.53359897 -0.01335569 315.75607123 -0.01304714 317.0155881 -0.01272924 C325.62421583 -0.01100346 334.23283481 -0.0139149 342.84146118 -0.01862335 C353.3345789 -0.02423645 363.8276667 -0.02270669 374.32078099 -0.01206186 C379.67299117 -0.00681096 385.0251515 -0.00473855 390.3773613 -0.01136017 C395.27991996 -0.01733369 400.18238269 -0.01402133 405.08493268 -0.00340506 C406.85531182 -0.00117699 408.62569912 -0.00229396 410.39607298 -0.00715664 C424.98020498 -0.0441318 439.33849297 0.02986734 450.70776367 10.44146729 C468.59057174 29.6771119 459.89526367 62.38799334 459.89526367 84.25396729 C290.93526367 84.25396729 121.97526367 84.25396729 -52.10473633 84.25396729 C-52.10473633 20.39837088 -52.10473633 20.39837088 -41.58911133 9.45318604 C-29.93658335 -0.86186625 -14.63918697 -0.04020939 0 0 Z " fill="#6E4BED" transform="translate(52.104736328125,2.74603271484375)"/>
<path d="M0 0 C3.81223512 -0.11745244 7.62399682 -0.18766603 11.4375 -0.25 C12.50677734 -0.28351563 13.57605469 -0.31703125 14.67773438 -0.3515625 C24.82329006 -0.47566716 31.82018407 2.17343707 39.2734375 9.0625 C43.85557061 14.20444122 46.11322774 20.36229679 46.15390015 27.19081116 C46.16250061 28.26590942 46.17110107 29.34100769 46.17996216 30.44868469 C46.18635208 32.21830818 46.18635208 32.21830818 46.19287109 34.02368164 C46.20104858 35.2662674 46.20922607 36.50885315 46.21765137 37.78909302 C46.24251934 41.91277749 46.25918163 46.03642525 46.2734375 50.16015625 C46.27879909 51.58234602 46.2841766 53.00453573 46.28956985 54.42672539 C46.31119962 60.34674354 46.32993262 66.26675901 46.34119225 72.18680668 C46.35740613 80.65475661 46.39051974 89.12224585 46.44759309 97.59002215 C46.48639749 103.55197296 46.50583757 109.51380113 46.51111281 115.47587484 C46.51475344 119.03216663 46.52663456 122.58796683 46.55921555 126.14412117 C46.59511618 130.11973411 46.59089865 134.0947777 46.58349609 138.07055664 C46.59990143 139.23613602 46.61630676 140.40171539 46.63320923 141.60261536 C46.56568514 150.48979881 44.35008095 156.92557722 38.6875 163.8125 C27.50900978 172.91127111 17.05938263 173.30102546 2.93873596 173.25396729 C1.42414177 173.25627485 -0.09045129 173.25945336 -1.60504204 173.26342177 C-5.74562015 173.27173784 -9.88610557 173.26765905 -14.02668393 173.26144934 C-18.50052259 173.25691272 -22.97434562 173.26391463 -27.44818115 173.26940918 C-36.20426763 173.27829214 -44.96031978 173.27638599 -53.71640759 173.2705839 C-60.83468965 173.26606281 -67.95296211 173.26545644 -75.07124519 173.26763153 C-76.59228528 173.26809123 -76.59228528 173.26809123 -78.14405345 173.26856022 C-80.20419407 173.26919968 -82.26433468 173.26984811 -84.3244753 173.2705054 C-103.63282721 173.27620555 -122.94116012 173.26965588 -142.24950892 173.25890467 C-158.80640414 173.2499708 -175.36327131 173.25152046 -191.92016602 173.26074219 C-211.15899383 173.2714527 -230.39780499 173.27565484 -249.63663536 173.26951766 C-251.68940325 173.26888058 -253.74217115 173.26825184 -255.79493904 173.26763153 C-256.8048698 173.26732298 -257.81480056 173.26701443 -258.85533528 173.26669653 C-265.9621337 173.26497183 -273.06892153 173.26787986 -280.17571831 173.27259064 C-288.84080239 173.2782082 -297.50585025 173.27666466 -306.1709302 173.26602915 C-310.5894891 173.26078403 -315.00798768 173.25869588 -319.4265461 173.26532745 C-323.47610695 173.27131315 -327.5255519 173.2679688 -331.57510234 173.25737235 C-333.03528442 173.25514938 -334.49547641 173.25624965 -335.95565205 173.26112393 C-350.40366605 173.30563093 -361.09210115 172.55643668 -371.8125 162.3125 C-376.27951588 155.54816166 -378.2453425 149.25712509 -378.10546875 141.12890625 C-378.0902417 139.97592041 -378.07501465 138.82293457 -378.05932617 137.63500977 C-378.02995972 136.33067993 -378.02995972 136.33067993 -378 135 C-376.02762863 134.99641747 -376.02762863 134.99641747 -374.01541138 134.99276257 C-342.74822782 134.93530774 -311.481121 134.8625101 -280.21401954 134.77101372 C-276.35915137 134.75974659 -272.50428283 134.74860797 -268.64941406 134.73754883 C-267.4983416 134.7342433 -267.4983416 134.7342433 -266.32401514 134.730871 C-253.9255704 134.6955724 -241.52712572 134.67066639 -229.12864947 134.64965298 C-216.39103246 134.62783149 -203.65348021 134.59472128 -190.91591835 134.55129844 C-183.06661267 134.52489063 -175.21738758 134.50711541 -167.36803973 134.50065396 C-161.33238743 134.49473834 -155.29689276 134.47305848 -149.26129532 134.44572449 C-146.7975911 134.4369791 -144.33386299 134.43321437 -141.87014389 134.43499184 C-128.88445537 134.44139862 -116.65578301 134.09372799 -104 131 C-102.99662598 130.76683421 -101.99325195 130.53366842 -100.95947266 130.293437 C-88.45849043 127.28991209 -76.56138159 121.4979926 -65 116 C-64.71125 117.134375 -64.4225 118.26875 -64.125 119.4375 C-63.75375 120.613125 -63.3825 121.78875 -63 123 C-60.6603331 124.16983345 -59.16608473 124.1661241 -56.5625 124.1875 C-55.78003906 124.20167969 -54.99757813 124.21585937 -54.19140625 124.23046875 C-51.70794013 124.14086064 -51.70794013 124.14086064 -49 122 C-48.48815355 118.99585431 -48.48815355 118.99585431 -48.48828125 115.4609375 C-48.45283203 114.15898437 -48.41738281 112.85703125 -48.38085938 111.515625 C-48.35775769 110.13542191 -48.33497536 108.75521343 -48.3125 107.375 C-48.27933555 105.98694648 -48.2448467 104.59892393 -48.20898438 103.2109375 C-48.12625885 99.80737293 -48.05718743 96.4040741 -48 93 C-45.36 93 -42.72 93 -40 93 C-39.56131592 93.86278564 -39.12263184 94.72557129 -38.6706543 95.61450195 C-37.03831399 98.82112004 -35.39836062 102.02379283 -33.75610352 105.2253418 C-33.04699471 106.61034778 -32.33994246 107.99640874 -31.63500977 109.38354492 C-30.62016724 111.37961644 -29.59793832 113.37175093 -28.57421875 115.36328125 C-28.26159592 115.98213699 -27.94897308 116.60099274 -27.62687683 117.23860168 C-25.41810323 121.60806316 -25.41810323 121.60806316 -22 125 C-18.01511291 124.92620579 -15.52226366 124.30002381 -12.0625 122.3125 C-9.79673764 120.18502565 -9.79673764 120.18502565 -9.56640625 117.4296875 C-10.18397006 112.54481343 -12.40220785 109.0121594 -14.875 104.8125 C-15.56529297 103.60303711 -15.56529297 103.60303711 -16.26953125 102.36914062 C-18.09959018 99.17847266 -19.95888569 96.06167147 -22 93 C-22 91.0625 -22 91.0625 -21 89 C-19.00669158 87.65668346 -17.00615134 86.32405988 -15 85 C-10.93222211 79.38927188 -10.84057825 74.25813642 -10.875 67.5 C-10.87113281 66.74074219 -10.86726563 65.98148437 -10.86328125 65.19921875 C-10.836006 61.03193329 -10.836006 61.03193329 -11.57763672 56.95507812 C-12.28483053 53.68154744 -10.56173338 50.94915654 -9.25 48 C-2.76590638 32.58628724 -0.95772805 16.58381725 0 0 Z " fill="#FE5450" transform="translate(423,336)"/>
<path d="M0 0 C0.82113281 -0.02900391 1.64226562 -0.05800781 2.48828125 -0.08789062 C9.55469608 -0.16068254 14.61835907 1.61732471 19.9921875 6.2421875 C20.53101563 6.88414062 21.06984375 7.52609375 21.625 8.1875 C22.45644531 9.14269531 22.45644531 9.14269531 23.3046875 10.1171875 C27.05888751 15.81951292 27.06970365 21.61876943 27.0859375 28.20703125 C27.0925943 29.15382248 27.0992511 30.10061371 27.10610962 31.07609558 C27.11620616 33.07390408 27.12092757 35.0717461 27.12060547 37.06958008 C27.1249711 40.10490332 27.16130197 43.13876245 27.19921875 46.17382812 C27.20508927 48.12239091 27.20905709 50.07096053 27.2109375 52.01953125 C27.22530853 52.91670364 27.23967957 53.81387604 27.25448608 54.73823547 C27.20051323 62.28926685 25.26200454 68.25735934 20.4375 74.125 C11.73360629 81.20956465 3.80434444 82.17201706 -7.25 81.3125 C-14.64867569 79.49735823 -20.62566856 76.02276169 -25.0625 69.75 C-26.85317309 66.07440788 -27.37563151 62.86287614 -27.44287109 58.79443359 C-27.45893402 57.90605804 -27.47499695 57.0176825 -27.49154663 56.10238647 C-27.5363833 52.03718115 -27.57708012 47.97213369 -27.60009766 43.90673828 C-27.61661698 41.77121045 -27.64385342 39.63573698 -27.68212891 37.50048828 C-27.73728341 34.40368284 -27.75883278 31.30816994 -27.7734375 28.2109375 C-27.79610687 27.26890472 -27.81877625 26.32687195 -27.84213257 25.35629272 C-27.82019796 18.37356854 -26.03060384 13.19289267 -22.25 7.3125 C-19.93359375 5.05859375 -19.93359375 5.05859375 -17.6875 3.75 C-16.94371094 3.29496094 -16.19992187 2.83992188 -15.43359375 2.37109375 C-10.43539676 -0.05200354 -5.45111292 0.06299437 0 0 Z " fill="#FFFDFD" transform="translate(320.25,380.6875)"/>
<path d="M0 0 C0.68231186 -0.00287018 1.36462372 -0.00574036 2.06761169 -0.00869751 C3.51423978 -0.01073854 4.96089544 -0.00520581 6.4074707 0.00732422 C8.58935897 0.0232065 10.76934566 0.00756975 12.95117188 -0.01171875 C23.25614053 -0.02823986 32.46727814 0.56605953 40.5859375 7.5078125 C44.78448832 12.89799446 45.58863898 18.21784289 45.49609375 24.8359375 C45.48924561 25.58512451 45.48239746 26.33431152 45.4753418 27.10620117 C45.30828315 32.84063016 44.49273706 36.66488861 41.05859375 41.3984375 C38.77669133 43.51734689 36.82512836 45.01517019 34.05859375 46.3984375 C34.70896315 49.64612433 35.89401936 52.10121804 37.5625 54.953125 C38.05556641 55.81550781 38.54863281 56.67789063 39.05664062 57.56640625 C40.0972092 59.36694064 41.14406808 61.16385475 42.19726562 62.95703125 C47.06977885 71.52703485 47.06977885 71.52703485 46.05859375 76.3984375 C43.51830239 80.05104579 40.21535264 82.12081537 35.93359375 83.1484375 C31.89701193 82.09541616 30.2699068 79.76174738 28.05859375 76.3984375 C25.1848983 70.84374337 22.60395589 65.14354138 20.05078125 59.43554688 C19.509375 58.29279297 18.96796875 57.15003906 18.41015625 55.97265625 C17.93400879 54.92682373 17.45786133 53.88099121 16.96728516 52.8034668 C15.1631911 50.01575394 15.1631911 50.01575394 11.34912109 49.55004883 C10.26324707 49.50001709 9.17737305 49.44998535 8.05859375 49.3984375 C8.0743042 50.23093018 8.09001465 51.06342285 8.10620117 51.92114258 C8.15736017 55.01291606 8.19495855 58.10447368 8.22338867 61.1965332 C8.24587708 63.19171451 8.28399573 65.18669963 8.32226562 67.18164062 C8.33193359 68.43525391 8.34160156 69.68886719 8.3515625 70.98046875 C8.36727295 72.13780518 8.3829834 73.2951416 8.39916992 74.48754883 C8.05859375 77.3984375 8.05859375 77.3984375 6.6652832 79.23706055 C3.92362139 81.21883919 2.02808438 81.60538049 -1.31640625 81.7109375 C-2.08726562 81.74832031 -2.858125 81.78570312 -3.65234375 81.82421875 C-6.90798443 81.21864736 -7.91606156 79.99768249 -9.94140625 77.3984375 C-10.44261169 74.12828064 -10.44261169 74.12828064 -10.44311523 70.19897461 C-10.44851822 69.48144516 -10.4539212 68.76391571 -10.45948792 68.02464294 C-10.47197389 65.6579334 -10.45548813 63.29244059 -10.4375 60.92578125 C-10.43765498 59.27958614 -10.43914372 57.63339067 -10.44190979 55.98719788 C-10.44329366 52.5397221 -10.43073684 49.09266243 -10.40795898 45.64526367 C-10.37955177 41.22422569 -10.38231773 36.8038779 -10.3950491 32.38278866 C-10.40199997 28.9847269 -10.3942242 25.586825 -10.38179207 22.18878365 C-10.37727336 20.55848363 -10.37694443 18.92816649 -10.38085747 17.29786491 C-10.38376455 15.02105318 -10.36728911 12.74519691 -10.34545898 10.46850586 C-10.340056 9.17263046 -10.33465302 7.87675507 -10.3290863 6.54161072 C-9.94140625 3.3984375 -9.94140625 3.3984375 -8.6111145 1.4808197 C-5.85908817 -0.30317119 -3.23148367 0.00866958 0 0 Z " fill="#FFFBFB" transform="translate(173.94140625,379.6015625)"/>
<path d="M0 0 C2.25461685 0.00842622 4.50662539 -0.02010412 6.76098633 -0.05200195 C16.40996138 -0.09908089 24.7332687 0.85225052 32.66137695 6.82104492 C37.07556119 11.34289219 38.60059852 15.48357163 38.6340332 21.67456055 C38.62243164 22.40352539 38.61083008 23.13249023 38.59887695 23.88354492 C38.61047852 24.60864258 38.62208008 25.33374023 38.6340332 26.08081055 C38.59458879 33.39774978 36.32318755 39.03768519 31.22387695 44.44604492 C28.97387695 45.75854492 28.97387695 45.75854492 27.22387695 46.44604492 C27.88037184 49.58446509 28.9747833 52.1288767 30.47387695 54.95776367 C31.1390332 56.2175 31.1390332 56.2175 31.81762695 57.50268555 C32.28168945 58.37086914 32.74575195 59.23905273 33.22387695 60.13354492 C33.68793945 61.01333008 34.15200195 61.89311523 34.63012695 62.79956055 C36.56999116 66.87220581 36.56999116 66.87220581 39.22387695 70.44604492 C39.66137695 73.19604492 39.66137695 73.19604492 39.22387695 76.44604492 C36.06699442 79.91091599 34.10242044 81.15319709 29.66137695 82.63354492 C26.22387695 82.44604492 26.22387695 82.44604492 23.8293457 80.06323242 C20.56783402 75.8758484 18.37982622 71.15121716 16.09887695 66.38354492 C15.24389905 64.62095535 14.38717924 62.85920946 13.52856445 61.09838867 C13.1325 60.28354004 12.73643555 59.46869141 12.32836914 58.62915039 C11.43447023 56.86229714 10.44087174 55.14612067 9.41918945 53.44995117 C8.22387695 51.44604492 8.22387695 51.44604492 8.22387695 49.44604492 C5.58387695 49.44604492 2.94387695 49.44604492 0.22387695 49.44604492 C0.24482422 50.30883057 0.26577148 51.17161621 0.28735352 52.06054688 C0.35555598 55.26412003 0.40569009 58.46732308 0.44360352 61.67138672 C0.4637097 63.05757831 0.4909994 64.44368517 0.52563477 65.82958984 C0.57418921 67.82246399 0.59471667 69.81595881 0.61450195 71.80932617 C0.63544922 73.00855713 0.65639648 74.20778809 0.67797852 75.44335938 C0.22387695 78.44604492 0.22387695 78.44604492 -1.66186523 80.33374023 C-4.04689624 81.58849789 -5.59120737 81.87894746 -8.27612305 81.88354492 C-9.02893555 81.90288086 -9.78174805 81.9222168 -10.55737305 81.94213867 C-13.72386538 81.23413775 -14.78336846 79.99290028 -16.77612305 77.44604492 C-17.27732849 74.17588806 -17.27732849 74.17588806 -17.27783203 70.24658203 C-17.28323502 69.52905258 -17.288638 68.81152313 -17.29420471 68.07225037 C-17.30669069 65.70554082 -17.29020493 63.34004801 -17.2722168 60.97338867 C-17.27237177 59.32719356 -17.27386051 57.68099809 -17.27662659 56.0348053 C-17.27801045 52.58732952 -17.26545363 49.14026985 -17.24267578 45.69287109 C-17.21426857 41.27183311 -17.21703452 36.85148532 -17.22976589 32.43039608 C-17.23671677 29.03233432 -17.228941 25.63443242 -17.21650887 22.23639107 C-17.21199016 20.60609106 -17.21166123 18.97577391 -17.21557426 17.34547234 C-17.21848134 15.0686606 -17.2020059 12.79280434 -17.18017578 10.51611328 C-17.1747728 9.22023788 -17.16936981 7.92436249 -17.1638031 6.58921814 C-16.77612305 3.44604492 -16.77612305 3.44604492 -15.4515686 1.52941895 C-11.28395917 -1.16543424 -4.87120504 -0.02776362 0 0 Z " fill="#FFFCFC" transform="translate(374.776123046875,379.553955078125)"/>
<path d="M0 0 C2.17124434 0.00841009 4.33976475 -0.02007581 6.51074219 -0.05200195 C16.13866664 -0.10061177 25.21683086 0.85609475 33.20605469 6.75854492 C39.14312016 13.1408903 39.40146105 20.0952138 39.12011719 28.48120117 C38.47983227 34.61223129 36.68021024 39.66822727 32.10839844 43.93823242 C29.98856034 45.44868217 28.34840699 46.44604492 25.70605469 46.44604492 C26.34220703 47.54275513 26.34220703 47.54275513 26.99121094 48.66162109 C28.56528827 51.3870668 30.12957065 54.11783558 31.6875 56.85253906 C32.36268228 58.03313704 33.04168191 59.21156064 33.72460938 60.38769531 C34.70770086 62.08231001 35.67581118 63.7855876 36.64355469 65.48901367 C37.52333984 67.02078247 37.52333984 67.02078247 38.42089844 68.58349609 C39.74356604 71.52959747 40.09189422 73.26503546 39.70605469 76.44604492 C36.95792526 80.29676731 33.62047838 82.22532196 29.08105469 83.32104492 C25.35567782 82.35520647 25.20431085 82.21692139 23.38964844 79.13354492 C22.96329102 78.41021973 22.53693359 77.68689453 22.09765625 76.94165039 C19.44931161 72.19228568 16.90061821 67.39630449 14.39355469 62.57104492 C13.84376953 61.5269043 13.29398437 60.48276367 12.72753906 59.40698242 C11.94926758 57.91424805 11.94926758 57.91424805 11.15527344 56.39135742 C10.68436279 55.4891748 10.21345215 54.58699219 9.72827148 53.6574707 C8.70605469 51.44604492 8.70605469 51.44604492 8.70605469 49.44604492 C6.06605469 49.44604492 3.42605469 49.44604492 0.70605469 49.44604492 C0.72700195 50.30883057 0.74794922 51.17161621 0.76953125 52.06054688 C0.83773371 55.26412003 0.88786782 58.46732308 0.92578125 61.67138672 C0.94588743 63.05757831 0.97317714 64.44368517 1.0078125 65.82958984 C1.05636694 67.82246399 1.0768944 69.81595881 1.09667969 71.80932617 C1.11762695 73.00855713 1.13857422 74.20778809 1.16015625 75.44335938 C0.70605469 78.44604492 0.70605469 78.44604492 -1.1796875 80.3359375 C-3.57673583 81.59452627 -5.09835006 81.84873939 -7.79394531 81.82104492 C-8.92316406 81.83264648 -8.92316406 81.83264648 -10.07519531 81.84448242 C-13.0024739 81.31880915 -14.19811043 80.57623055 -16.29394531 78.44604492 C-16.79515076 75.25817871 -16.79515076 75.25817871 -16.7956543 71.26831055 C-16.80375877 70.17760506 -16.80375877 70.17760506 -16.81202698 69.06486511 C-16.82453883 66.66026152 -16.80800827 64.25684959 -16.79003906 61.85229492 C-16.790194 60.18225034 -16.79168202 58.51220539 -16.79444885 56.84216309 C-16.79583394 53.34163524 -16.78325687 49.84151658 -16.76049805 46.34106445 C-16.73211282 41.85161962 -16.73484914 37.36285483 -16.74758816 32.87335968 C-16.75453963 29.42468446 -16.7467622 25.97616672 -16.73433113 22.5275116 C-16.72981143 20.87209171 -16.72948435 19.21665495 -16.73339653 17.56123352 C-16.73630362 15.24839564 -16.71982718 12.93649838 -16.69799805 10.6237793 C-16.69259506 9.3071228 -16.68719208 7.99046631 -16.68162537 6.63391113 C-16.29394531 3.44604492 -16.29394531 3.44604492 -14.96266174 1.52268982 C-10.89140561 -1.10405794 -4.74866229 -0.02802663 0 0 Z " fill="#FFFDFD" transform="translate(245.2939453125,379.553955078125)"/>
<path d="M0 0 C0.8677002 -0.01591187 1.73540039 -0.03182373 2.62939453 -0.04821777 C4.02327393 -0.0485199 4.02327393 -0.0485199 5.4453125 -0.04882812 C6.40679199 -0.05644165 7.36827148 -0.06405518 8.35888672 -0.07189941 C10.38962204 -0.08269418 12.42041285 -0.08555605 14.45117188 -0.08105469 C17.55953285 -0.0800815 20.66543238 -0.12172803 23.7734375 -0.16601562 C25.74739069 -0.17122204 27.72135245 -0.17391083 29.6953125 -0.17382812 C30.62456543 -0.19022339 31.55381836 -0.20661865 32.51123047 -0.22351074 C38.93598317 -0.15461019 38.93598317 -0.15461019 42.16015625 2.765625 C43.87259459 5.98889883 44.10678915 7.81786435 43.5703125 11.41992188 C42.4987793 13.57910156 42.4987793 13.57910156 40.5703125 15.41992188 C37.99233813 15.77704054 35.84717137 15.88805781 33.27734375 15.81054688 C32.21830086 15.80205719 32.21830086 15.80205719 31.13786316 15.793396 C28.88548624 15.77102598 26.63470747 15.72083387 24.3828125 15.66992188 C22.85484071 15.64985744 21.32684394 15.63160656 19.79882812 15.61523438 C16.0548805 15.5745614 12.31438225 15.49628817 8.5703125 15.41992188 C8.5703125 21.68992187 8.5703125 27.95992188 8.5703125 34.41992188 C14.35919883 34.34096682 14.35919883 34.34096682 20.14770508 34.23974609 C20.87111084 34.23475098 21.5945166 34.22975586 22.33984375 34.22460938 C23.07823486 34.21413574 23.81662598 34.20366211 24.57739258 34.19287109 C26.5703125 34.41992188 26.5703125 34.41992188 29.5703125 36.41992188 C29.93359375 38.51367188 29.93359375 38.51367188 29.8828125 40.91992188 C29.87894531 41.71398437 29.87507813 42.50804687 29.87109375 43.32617188 C29.5703125 45.41992188 29.5703125 45.41992188 27.5703125 47.41992188 C25.59912109 47.64697266 25.59912109 47.64697266 23.21875 47.61523438 C22.45224121 47.61023926 21.68573242 47.60524414 20.89599609 47.60009766 C19.92227051 47.58188965 18.94854492 47.56368164 17.9453125 47.54492188 C14.8515625 47.50367188 11.7578125 47.46242188 8.5703125 47.41992188 C8.5703125 53.68992187 8.5703125 59.95992188 8.5703125 66.41992188 C11.85742188 66.33291016 11.85742188 66.33291016 15.2109375 66.24414062 C17.33899315 66.20512045 19.46700861 66.17477618 21.59521484 66.14526367 C23.07163396 66.1201545 24.54792918 66.08605932 26.02392578 66.04272461 C28.1490739 65.98190387 30.27257644 65.95367978 32.3984375 65.93164062 C33.6762207 65.90545654 34.95400391 65.87927246 36.27050781 65.85229492 C39.5703125 66.41992188 39.5703125 66.41992188 41.99121094 68.7590332 C43.90975433 71.9919034 44.12163361 73.71819441 43.5703125 77.41992188 C42.32519531 79.57315063 42.32519531 79.57315063 40.5703125 81.41992188 C38.48339844 81.91439819 38.48339844 81.91439819 36.0546875 81.90576172 C34.68812012 81.91499161 34.68812012 81.91499161 33.29394531 81.92440796 C31.82199707 81.90285141 31.82199707 81.90285141 30.3203125 81.88085938 C29.3106543 81.87994293 28.30099609 81.87902649 27.26074219 81.87808228 C25.12560324 81.87203904 22.99047305 81.85627151 20.85546875 81.83154297 C17.58301638 81.79506349 14.31169683 81.79052335 11.0390625 81.79101562 C8.96613603 81.78118364 6.89321724 81.76952629 4.8203125 81.75585938 C3.34836426 81.7525209 3.34836426 81.7525209 1.84667969 81.74911499 C0.93563477 81.73635529 0.02458984 81.72359558 -0.9140625 81.71044922 C-1.71553711 81.70282562 -2.51701172 81.69520203 -3.34277344 81.68734741 C-5.4296875 81.41992188 -5.4296875 81.41992188 -8.4296875 79.41992188 C-8.73764105 76.95300873 -8.84965617 74.73441171 -8.83374023 72.26391602 C-8.84060349 71.52717148 -8.84746674 70.79042694 -8.85453796 70.03135681 C-8.8728817 67.58906942 -8.86895778 65.14741981 -8.86328125 62.70507812 C-8.86783964 61.01118255 -8.87314418 59.31728883 -8.87916565 57.62339783 C-8.88811176 54.06990048 -8.88565694 50.51662768 -8.87573242 46.96313477 C-8.8642443 42.40519768 -8.88444369 37.84803548 -8.91364956 33.29020023 C-8.93198104 29.7909196 -8.93172519 26.29182567 -8.92601204 22.79250908 C-8.92585843 21.11195222 -8.93193541 19.43138301 -8.94430351 17.75087166 C-8.95915383 15.40185859 -8.94858198 13.0542896 -8.93139648 10.70532227 C-8.94106445 10.00859406 -8.95073242 9.31186584 -8.96069336 8.59402466 C-8.91305003 5.48998719 -8.80186462 3.82913447 -6.67518616 1.49082947 C-4.24376636 0.33125366 -2.68178811 0.02968088 0 0 Z " fill="#FFFCFC" transform="translate(113.4296875,379.580078125)"/>
<path d="M0 0 C1.31095139 -0.00426498 2.62190277 -0.00852997 3.97257996 -0.01292419 C5.42878726 -0.01257467 6.88499454 -0.01211313 8.34120178 -0.0115509 C9.87208132 -0.01454247 11.4029601 -0.017945 12.93383789 -0.02172852 C17.09495716 -0.03057242 21.25605588 -0.03290678 25.41718364 -0.0335443 C28.88896292 -0.03449317 32.36073739 -0.03817116 35.83251482 -0.0417164 C44.02193638 -0.04986226 52.21134695 -0.05230049 60.40077209 -0.05158997 C68.85374379 -0.05098896 77.30665171 -0.06154493 85.75960726 -0.07733363 C93.01317646 -0.09040018 100.2667248 -0.09577424 107.52030569 -0.09513456 C111.85422701 -0.09487933 116.18809165 -0.09774413 120.52200127 -0.10831261 C124.5972412 -0.11797885 128.67237011 -0.11808294 132.74761391 -0.11079597 C134.24400367 -0.10974833 135.74040029 -0.11212367 137.23677826 -0.11815643 C139.27803681 -0.12585348 141.31933304 -0.12004255 143.3605957 -0.11352539 C145.07481673 -0.11434254 145.07481673 -0.11434254 146.82366848 -0.1151762 C149.73329723 0.13281847 151.34553293 0.5052139 153.74378967 2.13371277 C155.74378967 5.13371277 155.74378967 5.13371277 155.61878967 8.57121277 C154.64153857 12.55002083 153.94025714 13.67399555 150.74378967 16.13371277 C147.77960968 16.63707733 147.77960968 16.63707733 144.25343323 16.64164734 C143.27861284 16.65100728 143.27861284 16.65100728 142.2840991 16.66055632 C140.10818331 16.67650128 137.93338548 16.66387758 135.75746155 16.65129089 C134.19687242 16.6567114 132.63628841 16.66383366 131.07571411 16.67253113 C126.83808677 16.69077614 122.60084869 16.68369223 118.36321449 16.67101479 C113.93012563 16.66089316 109.49707026 16.67027813 105.0639801 16.67655945 C97.61913565 16.68383831 90.17444988 16.67424193 82.72962952 16.65519714 C74.120324 16.63342789 65.51139737 16.6404791 56.90210104 16.66250277 C49.51260174 16.68065001 42.12321656 16.68321841 34.73370218 16.67274809 C30.3192718 16.66650942 25.90501955 16.66568772 21.49060059 16.67889404 C17.34051195 16.69044216 13.19091217 16.6824462 9.04087639 16.65931702 C7.51708221 16.65402431 5.99324695 16.65555334 4.46946907 16.66436768 C2.39047125 16.67528566 0.31304363 16.66160831 -1.76585388 16.64164734 C-2.92949211 16.64013924 -4.09313034 16.63863113 -5.29203033 16.63707733 C-8.87828682 16.02807436 -10.05461938 14.97205674 -12.25621033 12.13371277 C-12.96503336 9.22586396 -12.59592822 7.19117377 -12.25621033 4.13371277 C-9.27459417 -0.26772061 -4.90781647 0.00719929 0 0 Z " fill="#4628B2" transform="translate(176.25621032714844,37.86628723144531)"/>
<path d="M0 0 C1.20853638 -0.00571014 2.41707275 -0.01142029 3.66223145 -0.01730347 C5.00350942 -0.0185488 6.34478751 -0.0196739 7.68606567 -0.02069092 C9.09709808 -0.02531968 10.50812924 -0.03034442 11.91915894 -0.03573608 C15.75390498 -0.04885561 19.58863352 -0.05530404 23.42339849 -0.05974674 C25.8190125 -0.06267789 28.21462171 -0.06678276 30.61023331 -0.07125092 C38.10509242 -0.08492401 45.5999406 -0.09459187 53.09481132 -0.09845281 C61.74759754 -0.10293473 70.40022588 -0.12048955 79.05296409 -0.1494534 C85.74094876 -0.17106383 92.42888898 -0.18115673 99.11690819 -0.18249393 C103.1116398 -0.18354232 107.10622296 -0.18945744 111.10091782 -0.20731354 C114.8585639 -0.22378349 118.61594978 -0.2259551 122.37361908 -0.21717453 C123.75187756 -0.2164036 125.13014997 -0.22075431 126.50837326 -0.23063278 C128.3916074 -0.2433382 130.27494594 -0.23568886 132.15820312 -0.22705078 C133.21160322 -0.22851734 134.26500332 -0.2299839 135.35032463 -0.2314949 C138.94024338 0.23605931 141.62851759 1.56287428 144.20608521 4.14044189 C144.51467896 6.06622314 144.51467896 6.06622314 144.64358521 8.45294189 C144.70417114 9.23282471 144.76475708 10.01270752 144.82717896 10.81622314 C144.0643895 13.67068684 142.83897884 14.74583045 140.36631775 16.29721069 C135.35240984 18.2543535 129.7016098 17.6906427 124.40139771 17.65802002 C122.99153929 17.66344459 121.58168655 17.67056914 120.17184448 17.67926025 C116.35359481 17.69745702 112.53577867 17.69044144 108.71752167 17.67774391 C104.7164648 17.66759721 100.71544436 17.67701422 96.71438599 17.68328857 C89.99605667 17.69056014 83.2779034 17.68099026 76.55960083 17.66192627 C68.79892684 17.64015835 61.03867322 17.64721008 53.27800941 17.66923189 C46.60774965 17.68739997 39.93761623 17.68993737 33.26733971 17.67947721 C29.28658536 17.67324998 25.30602843 17.67238531 21.32528687 17.68562317 C17.58225129 17.6972017 13.83975623 17.6891201 10.09677887 17.66604614 C8.0726546 17.65825812 6.04848446 17.67009786 4.02438354 17.68255615 C-3.24773663 17.6148354 -7.54931824 17.38503845 -12.79391479 12.14044189 C-13.38163917 5.91056349 -13.38163917 5.91056349 -10.98141479 2.76544189 C-7.35064469 0.06829839 -4.38983863 0.0124052 0 0 Z " fill="#F8D663" transform="translate(120.79391479492188,222.85955810546875)"/>
<path d="M0 0 C1.08509857 -0.00554901 2.17019714 -0.01109802 3.28817749 -0.01681519 C6.87355766 -0.02862201 10.45767703 -0.0043239 14.04296875 0.02148438 C16.53491152 0.02319524 19.0268561 0.02313004 21.51879883 0.0213623 C27.40962844 0.02322794 33.29999522 0.04948048 39.1907053 0.08551359 C45.21720091 0.12008028 51.24333937 0.1165377 57.26991272 0.10977936 C62.41545769 0.10671047 67.5608762 0.11882743 72.70639038 0.13591003 C75.17515266 0.14294357 77.64392927 0.14606414 80.11270142 0.1452179 C83.56237716 0.14701468 87.01137832 0.16838758 90.4609375 0.1953125 C91.48238861 0.1923819 92.50383972 0.18945129 93.5562439 0.18643188 C99.09855108 0.25320667 103.10534527 0.4901109 107.23046875 4.61523438 C107.79428362 10.34735219 107.79428362 10.34735219 107.23046875 12.61523438 C105.06005533 15.07174093 103.25663684 16.44421129 99.9803009 16.99025154 C97.10331603 17.14433785 94.25026838 17.1669217 91.36914062 17.14868164 C90.27428848 17.15729721 89.17943634 17.16591278 88.05140686 17.17478943 C84.43377009 17.19748502 80.81690564 17.19070383 77.19921875 17.18164062 C74.68485279 17.18687434 72.17048881 17.19314989 69.65612793 17.20042419 C64.38705186 17.21083488 59.11817649 17.20658586 53.84912109 17.19165039 C47.7634683 17.17472302 41.67853249 17.19057416 35.59295797 17.22287327 C29.73080844 17.25280444 23.86893645 17.25475109 18.00672913 17.24537468 C15.5156206 17.24455381 13.02449728 17.25144295 10.53343201 17.26614571 C7.05235332 17.28354233 3.5728133 17.26908775 0.09179688 17.24633789 C-0.93900497 17.25803009 -1.96980682 17.26972229 -3.03184509 17.2817688 C-7.76467681 17.21875732 -10.03156765 17.16802924 -13.90930176 14.26329041 C-15.76953125 11.61523438 -15.76953125 11.61523438 -16.39453125 8.61523438 C-14.53460933 -0.31239084 -7.54621269 -0.09798537 0 0 Z " fill="#00A9EF" transform="translate(89.76953125,121.384765625)"/>
<path d="M0 0 C0.80195297 -0.0049649 1.60390594 -0.00992981 2.43016052 -0.01504517 C5.0844712 -0.0296562 7.73872212 -0.03646678 10.39306641 -0.04199219 C12.23768109 -0.04774421 14.08229575 -0.05350194 15.9269104 -0.05926514 C19.79551472 -0.0697719 23.66409827 -0.07561679 27.53271484 -0.07910156 C32.48821011 -0.08458769 37.44343082 -0.10861959 42.39883995 -0.13707352 C46.20955201 -0.15570234 50.02019794 -0.16090561 53.83095169 -0.16243744 C55.65778735 -0.1654636 57.48462185 -0.1734909 59.31141281 -0.18662262 C61.86797709 -0.2036894 64.42387052 -0.20180153 66.98046875 -0.1953125 C68.11060143 -0.20913467 68.11060143 -0.20913467 69.26356506 -0.22323608 C73.7193085 -0.18783265 76.58096627 0.399673 80.11962891 3.16113281 C81.66549766 6.25287033 81.41322412 8.75542834 81.11962891 12.16113281 C79.25254386 14.52610721 77.7990146 15.82143997 75.11962891 17.16113281 C72.52210617 17.2697736 69.95098492 17.31844937 67.3527832 17.32226562 C66.55097626 17.32723053 65.74916931 17.33219543 64.92306519 17.33731079 C62.26331736 17.35194791 59.60362919 17.35873737 56.94384766 17.36425781 C55.09780373 17.37000848 53.25175983 17.37576622 51.40571594 17.38153076 C47.53113527 17.39204549 43.65657537 17.39788491 39.78198242 17.40136719 C34.81861137 17.40684956 29.85551498 17.43087007 24.89223003 17.45933914 C21.07722677 17.47796992 17.26228956 17.48317138 13.44724464 17.48470306 C11.61761793 17.48772969 9.78799237 17.49575854 7.95841026 17.50888824 C5.3969477 17.52595623 2.83615467 17.52406665 0.2746582 17.51757812 C-0.48033463 17.52679291 -1.23532745 17.53600769 -2.01319885 17.54550171 C-6.48492833 17.51004436 -9.31170951 16.89575426 -12.88037109 14.16113281 C-14.84175497 11.57567225 -14.89335373 10.37318256 -14.69287109 7.09863281 C-13.86119983 4.09182131 -13.35808345 2.97176877 -10.88037109 1.16113281 C-7.21061827 -0.06211813 -3.8217434 0.00564005 0 0 Z " fill="#3C3B44" transform="translate(404.88037109375,288.8388671875)"/>
<path d="M0 0 C0.88027359 -0.0087616 1.76054718 -0.01752319 2.66749573 -0.02655029 C5.57115273 -0.04851908 8.47328121 -0.0340006 11.37695312 -0.01708984 C13.39807426 -0.0204587 15.41919341 -0.0253119 17.44030762 -0.03158569 C21.67378042 -0.03895361 25.90672533 -0.02825392 30.14013672 -0.00488281 C35.56446094 0.02360468 40.98754824 0.00720031 46.41182709 -0.02274513 C50.58462836 -0.04082015 54.75713677 -0.03505909 58.9299469 -0.02210617 C60.92981615 -0.01877273 62.92971206 -0.02285703 64.92955017 -0.03450394 C67.72588436 -0.04721588 70.52022074 -0.02783118 73.31640625 0 C74.14149185 -0.01012115 74.96657745 -0.02024231 75.81666565 -0.03067017 C80.06047468 0.04750989 81.71448671 0.30963714 85.20690918 2.9647522 C87.15820312 5.64697266 87.15820312 5.64697266 87.22070312 9.20947266 C86.03319608 13.05140722 85.37316969 14.28999143 82.15820312 16.64697266 C79.12727468 17.04150881 76.46029765 17.19416006 73.42993164 17.16455078 C72.1097403 17.1750647 72.1097403 17.1750647 70.76287842 17.18579102 C67.8539676 17.20339363 64.94603007 17.19173922 62.03710938 17.17822266 C60.01456007 17.18091716 57.99201203 17.18479923 55.96946716 17.18981934 C51.73008901 17.19571766 47.49104796 17.18714145 43.25170898 17.16845703 C37.81966301 17.14568201 32.38840819 17.15877947 26.95639133 17.18274689 C22.779333 17.19720818 18.60246188 17.19259706 14.42539787 17.18223572 C12.42273808 17.1795686 10.42006124 17.18283766 8.41742134 17.19215393 C5.61644681 17.20232322 2.81674871 17.18681248 0.01586914 17.16455078 C-0.81078751 17.17264771 -1.63744415 17.18074463 -2.489151 17.18908691 C-6.41332806 17.13136251 -8.42002908 16.90126174 -11.8563385 14.82946777 C-13.84179688 12.64697266 -13.84179688 12.64697266 -14.46679688 9.20947266 C-12.98937031 0.78814126 -7.34893798 -0.09014791 0 0 Z " fill="#00A9EF" transform="translate(87.841796875,290.35302734375)"/>
<path d="M0 0 C0.88988113 -0.00861557 1.77976227 -0.01723114 2.6966095 -0.02610779 C5.63796076 -0.04880882 8.57836242 -0.04202103 11.51977539 -0.03295898 C13.56474593 -0.03819297 15.60971404 -0.04446861 17.65467834 -0.05174255 C21.94112505 -0.06215459 26.22723996 -0.05757402 30.51367188 -0.04296875 C36.00636635 -0.02578533 41.49801434 -0.04926686 46.990592 -0.08445835 C51.21398347 -0.10642158 55.43712416 -0.10499335 59.66055489 -0.09669304 C61.68555409 -0.09587283 63.71057159 -0.10274956 65.7355175 -0.11746407 C68.56782151 -0.13488868 71.39824052 -0.12038471 74.23046875 -0.09765625 C75.06647614 -0.10934845 75.90248352 -0.12104065 76.76382446 -0.13308716 C81.04970411 -0.06312623 82.70409406 0.16399747 86.20411682 2.88148499 C88.17993164 5.53344727 88.17993164 5.53344727 88.74243164 8.59594727 C88.0580196 12.17009904 87.03174295 13.33347854 84.17993164 15.53344727 C80.35377408 16.80883312 76.73720777 16.7054346 72.7487793 16.72631836 C71.8883049 16.73449585 71.02783051 16.74267334 70.14128113 16.75109863 C67.29219253 16.77592308 64.44315359 16.79245919 61.59399414 16.80688477 C60.62108807 16.81220844 59.64818199 16.81753212 58.64579391 16.82301712 C53.49832701 16.84973313 48.35088425 16.86911486 43.20336914 16.88354492 C37.8845053 16.9002086 32.56625915 16.94500524 27.24762917 16.99591637 C23.15897906 17.02954814 19.07047651 17.04111774 14.9817009 17.046772 C13.02086021 17.0534934 11.06002953 17.06873848 9.09932327 17.09266281 C6.35565791 17.12423646 3.61367192 17.12436331 0.86987305 17.11694336 C0.06034683 17.13334869 -0.74917938 17.14975403 -1.58323669 17.16665649 C-5.7889726 17.12009614 -7.37786911 16.8735995 -10.82803345 14.21963501 C-12.82006836 11.53344727 -12.82006836 11.53344727 -13.38256836 7.97094727 C-12.09995549 0.13275753 -6.96001239 -0.05419867 0 0 Z " fill="#85E26D" transform="translate(86.820068359375,257.466552734375)"/>
<path d="M0 0 C0.82131409 -0.0065712 1.64262817 -0.0131424 2.48883057 -0.01991272 C5.21350185 -0.03966304 7.93811798 -0.05131205 10.6628418 -0.0612793 C11.59253469 -0.06535482 12.52222759 -0.06943035 13.480093 -0.07362938 C18.40062616 -0.09449735 23.32113136 -0.10879601 28.24169922 -0.11816406 C33.32621567 -0.12923104 38.41029478 -0.16363216 43.49465656 -0.20333576 C47.4023063 -0.22947081 51.30985134 -0.23785312 55.2175808 -0.24144554 C57.0918797 -0.24631943 58.96617368 -0.25795621 60.84038734 -0.27648354 C63.46425736 -0.30080942 66.08698944 -0.29992217 68.7109375 -0.29296875 C69.48463181 -0.30577881 70.25832611 -0.31858887 71.0554657 -0.33178711 C74.77522401 -0.29587245 76.86540166 0.05938826 80.03141785 2.08137512 C82.04956055 4.17700195 82.04956055 4.17700195 82.6784668 6.17700195 C82.6455957 7.16700195 82.6455957 7.16700195 82.61206055 8.17700195 C82.61334961 8.83700195 82.61463867 9.49700195 82.6159668 10.17700195 C81.76411125 13.18493327 80.53561165 14.27226029 78.04956055 16.17700195 C75.13029137 16.56645363 72.59007175 16.71428638 69.67260742 16.67871094 C68.82988785 16.68411392 67.98716827 16.68951691 67.11891174 16.69508362 C64.33502006 16.70758454 61.55215981 16.69107108 58.76831055 16.6730957 C56.83304795 16.67325066 54.89778504 16.67473908 52.96252441 16.67750549 C48.90724972 16.6788901 44.85232843 16.66632111 40.79711914 16.64355469 C35.59823537 16.61516995 30.39993889 16.61790659 25.20101166 16.6306448 C21.20500673 16.63759881 17.20913761 16.62981586 13.21315002 16.61738777 C11.29619365 16.61287057 9.37922271 16.61253881 7.46226501 16.61645317 C4.78337707 16.61936265 2.10529927 16.60287117 -0.57348633 16.58105469 C-1.76275978 16.58780716 -1.76275978 16.58780716 -2.97605896 16.59469604 C-6.24485894 16.55045103 -8.55470339 16.40171612 -11.42712402 14.77064514 C-13.73243348 12.35890517 -13.85904734 10.34433108 -14.1262207 7.11450195 C-13.95043945 5.17700195 -13.95043945 5.17700195 -12.13793945 2.73950195 C-8.10614681 -0.14034994 -4.81356252 0.01659881 0 0 Z " fill="#3C3B44" transform="translate(403.950439453125,218.822998046875)"/>
<path d="M0 0 C0.82175217 -0.00554901 1.64350433 -0.01109802 2.49015808 -0.01681519 C5.19911515 -0.02859978 7.90639499 -0.00434938 10.61523438 0.02148438 C12.50183028 0.02319588 14.38842856 0.02312939 16.27502441 0.0213623 C20.22606199 0.02301487 24.17653173 0.04170121 28.12744141 0.07324219 C33.1883391 0.11291954 38.24849319 0.11728702 43.30951691 0.10977936 C47.20435379 0.10670774 51.09902394 0.11883701 54.99382019 0.13591003 C56.85970514 0.14293428 58.72560898 0.14606527 60.59150696 0.1452179 C63.20067401 0.14701848 65.80895517 0.16842221 68.41796875 0.1953125 C69.18694992 0.1923819 69.95593109 0.18945129 70.74821472 0.18643188 C75.66567027 0.26450708 79.16498814 1.07123814 82.70898438 4.61523438 C83.29733588 11.79312269 83.29733588 11.79312269 81.20593262 14.71546936 C77.71675426 17.37015754 74.54200221 17.16827958 70.33203125 17.11694336 C69.48931168 17.12234634 68.6465921 17.12774933 67.77833557 17.13331604 C64.99444389 17.14581696 62.21158364 17.1293035 59.42773438 17.11132812 C57.49247178 17.11148308 55.55720887 17.1129715 53.62194824 17.11573792 C49.56667354 17.11712252 45.51175226 17.10455353 41.45654297 17.08178711 C36.2576592 17.05340237 31.05936271 17.05613902 25.86043549 17.06887722 C21.86443056 17.07583123 17.86856144 17.06804828 13.87257385 17.05562019 C11.95561748 17.051103 10.03864654 17.05077123 8.12168884 17.05468559 C5.4428009 17.05759508 2.76472309 17.04110359 0.0859375 17.01928711 C-1.10333595 17.02603958 -1.10333595 17.02603958 -2.31663513 17.03292847 C-5.58608492 16.98867466 -7.89404185 16.84120402 -10.76550293 15.2066803 C-12.54438532 13.35091395 -13.00369729 12.27272207 -13.35351562 9.74023438 C-13.46824219 9.0828125 -13.58296875 8.42539063 -13.70117188 7.74804688 C-12.33925311 0.66606928 -6.07710471 -0.10481678 0 0 Z " fill="#3C3B44" transform="translate(403.291015625,183.384765625)"/>
<path d="M0 0 C0.8428656 -0.0071553 1.6857312 -0.01431061 2.55413818 -0.02168274 C5.33279048 -0.03855513 8.10982619 -0.019178 10.88842773 0.00219727 C12.8222619 0.00136851 14.75609599 -0.00109113 16.68992615 -0.00511169 C20.73930102 -0.00796859 24.78812243 0.00672237 28.83740234 0.03417969 C34.02854262 0.06828504 39.21869477 0.06223564 44.40988255 0.04351711 C48.40162905 0.03295113 52.39314543 0.04188091 56.38487053 0.05690193 C58.29903416 0.06208562 60.21322181 0.06159968 62.12738228 0.05535698 C64.80159364 0.04990871 67.47438764 0.07026581 70.1484375 0.09765625 C70.93971542 0.09113037 71.73099335 0.08460449 72.54624939 0.07788086 C76.12185063 0.14018035 78.1190026 0.33146828 80.99668884 2.53944397 C82.62667463 4.79308078 83.0773965 5.87909645 83.07202148 8.63110352 C83.09393555 9.29110352 83.11584961 9.95110352 83.13842773 10.63110352 C82.12840685 13.8430954 80.3126323 14.83881796 77.50952148 16.63110352 C74.58785335 17.02345025 72.04474154 17.18901686 69.12670898 17.16455078 C68.29520325 17.17316635 67.46369751 17.18178192 66.60699463 17.19065857 C63.86585118 17.21331134 61.12573055 17.2065816 58.38452148 17.19750977 C56.47550147 17.20274539 54.56648405 17.20902164 52.6574707 17.21629333 C48.65946262 17.22669604 44.6618105 17.2221375 40.66381836 17.20751953 C35.54217694 17.1903253 30.42165671 17.21383545 25.30014038 17.24900913 C21.35897396 17.27097549 17.41807618 17.26954362 13.47686768 17.26124382 C11.58863088 17.26042401 9.70037441 17.26729311 7.81219482 17.28201485 C5.171541 17.29944853 2.53290677 17.28492979 -0.10766602 17.26220703 C-0.88599792 17.27389923 -1.66432983 17.28559143 -2.46624756 17.29763794 C-6.46713658 17.22763993 -8.29434452 16.78564867 -11.4753418 14.27915955 C-13.49047852 11.63110352 -13.49047852 11.63110352 -14.11547852 8.63110352 C-12.5196968 0.97135128 -6.91293578 -0.10240994 0 0 Z " fill="#3C3B44" transform="translate(403.490478515625,148.368896484375)"/>
<path d="M0 0 C0.8428656 -0.0071553 1.6857312 -0.01431061 2.55413818 -0.02168274 C5.33279048 -0.03855513 8.10982619 -0.019178 10.88842773 0.00219727 C12.8222619 0.00136851 14.75609599 -0.00109113 16.68992615 -0.00511169 C20.73930102 -0.00796859 24.78812243 0.00672237 28.83740234 0.03417969 C34.02854262 0.06828504 39.21869477 0.06223564 44.40988255 0.04351711 C48.40162905 0.03295113 52.39314543 0.04188091 56.38487053 0.05690193 C58.29903416 0.06208562 60.21322181 0.06159968 62.12738228 0.05535698 C64.80159364 0.04990871 67.47438764 0.07026581 70.1484375 0.09765625 C70.93971542 0.09113037 71.73099335 0.08460449 72.54624939 0.07788086 C76.1215285 0.14017474 78.12082749 0.33373727 81.00108337 2.5372467 C83.5429748 6.06563586 82.983658 8.36387491 82.50952148 12.63110352 C80.69788881 15.30541841 79.63191072 15.59030711 76.50952148 16.63110352 C73.80808166 16.74275718 71.13175843 16.79876355 68.4296875 16.80810547 C67.60662109 16.81467667 66.78355469 16.82124786 65.93554688 16.82801819 C63.21150624 16.84773201 60.4875206 16.85940747 57.76342773 16.86938477 C56.83340376 16.87346029 55.90337978 16.87753582 54.94517326 16.88173485 C50.02578834 16.90258411 45.10643125 16.91689264 40.18701172 16.92626953 C35.10130522 16.9373515 30.01603416 16.97177513 24.93048191 17.01144123 C21.02287468 17.03755182 17.11537228 17.04595625 13.20768547 17.04955101 C11.33256007 17.05442879 9.45743972 17.06607652 7.58239937 17.084589 C4.96082821 17.10887003 2.34039856 17.1080363 -0.28125 17.10107422 C-1.4448278 17.12028931 -1.4448278 17.12028931 -2.63191223 17.13989258 C-6.11056104 17.10617365 -8.10596353 16.91627218 -10.93714905 14.8165741 C-13.17141098 11.67305958 -13.55789607 9.47390423 -13.49047852 5.63110352 C-9.66492671 0.42914705 -6.11487414 -0.09058726 0 0 Z " fill="#3C3B44" transform="translate(403.490478515625,113.368896484375)"/>
<path d="M0 0 C0.80078476 -0.00554901 1.60156952 -0.01109802 2.42662048 -0.01681519 C5.06042271 -0.02857767 7.69249128 -0.00437224 10.32617188 0.02148438 C12.16410239 0.02319648 14.00203535 0.02312878 15.83996582 0.0213623 C19.68668063 0.02301362 23.53281131 0.0416767 27.37939453 0.07324219 C32.30228737 0.11291914 37.22441565 0.11728621 42.14743805 0.10977936 C45.94109054 0.10670516 49.73457217 0.11884619 53.52818298 0.13591003 C55.34300158 0.14292542 57.15783955 0.14606634 58.97267151 0.1452179 C61.51208275 0.14702205 64.05058957 0.16845594 66.58984375 0.1953125 C67.33495712 0.1923819 68.0800705 0.18945129 68.84776306 0.18643188 C73.54462189 0.26281018 76.8098332 1.11642141 80.79492188 3.61523438 C82.34079063 6.70697189 82.08851709 9.2095299 81.79492188 12.61523438 C80.30567932 14.81044006 80.30567932 14.81044006 77.79492188 16.61523438 C74.84124874 17.00464336 72.26231017 17.15245089 69.31030273 17.11694336 C68.4562233 17.12234634 67.60214386 17.12774933 66.72218323 17.13331604 C63.90102414 17.14581655 61.08088283 17.12930509 58.25976562 17.11132812 C56.29968716 17.11148307 54.33960838 17.11297127 52.37953186 17.11573792 C48.27298428 17.11712245 44.16678573 17.10455349 40.06030273 17.08178711 C34.79182076 17.05338367 29.52391799 17.05614418 24.25539303 17.06887722 C20.20881689 17.07582543 16.1623751 17.06805525 12.11581612 17.05562019 C10.17291338 17.05109866 8.22999627 17.050775 6.28709221 17.05468559 C3.5744751 17.05758988 0.86266209 17.04112928 -1.84985352 17.01928711 C-3.05854599 17.02603958 -3.05854599 17.02603958 -4.29165649 17.03292847 C-9.72097139 16.96013992 -9.72097139 16.96013992 -12.18211365 15.2066803 C-13.37379344 13.35276065 -13.89945273 11.91513615 -14.26757812 9.74023438 C-14.47060547 8.75410156 -14.47060547 8.75410156 -14.67773438 7.74804688 C-14.02836898 4.81785262 -12.31516742 3.52122168 -10.02893066 1.69447327 C-6.86342751 -0.17866836 -3.56284477 -0.06341972 0 0 Z " fill="#3C3B44" transform="translate(404.205078125,253.384765625)"/>
<path d="M0 0 C0.82321243 -0.00700928 1.64642487 -0.01401855 2.49458313 -0.02124023 C5.21352959 -0.03883378 7.93143373 -0.02719298 10.65039062 -0.01367188 C12.54081421 -0.01636641 14.43123644 -0.0202485 16.32165527 -0.02526855 C20.28276775 -0.03116544 24.24351933 -0.02259455 28.20458984 -0.00390625 C33.28251624 0.01888343 38.359597 0.00576136 43.43749237 -0.01819611 C47.34086481 -0.03264896 51.24403669 -0.02805045 55.14741516 -0.01768494 C57.01972046 -0.01501623 58.89204395 -0.01829246 60.764328 -0.02760315 C63.38113648 -0.03776038 65.99657485 -0.02228006 68.61328125 0 C69.38742874 -0.00809692 70.16157623 -0.01619385 70.95918274 -0.02453613 C74.47534506 0.03093829 76.43007514 0.22903218 79.26013184 2.39758301 C81.09963781 4.9192264 81.7303438 6.3894081 81.80664062 9.51757812 C80.61756714 12.20863917 79.61901509 13.95302881 77.1872406 15.64295959 C73.78929552 16.89134478 70.47814648 16.82078428 66.90454102 16.82397461 C65.71602287 16.83645988 65.71602287 16.83645988 64.50349426 16.84919739 C61.88704502 16.87327204 59.27084509 16.88206561 56.65429688 16.88867188 C54.83353094 16.89763896 53.01276576 16.90676082 51.19200134 16.91603088 C47.37643646 16.93251569 43.56095928 16.94022028 39.74536133 16.94311523 C34.85804362 16.94850368 29.97155061 16.98620463 25.08446598 17.0318594 C21.32434582 17.0616095 17.56442494 17.06883831 13.80419731 17.06984138 C12.00245822 17.07404648 10.20071869 17.08649241 8.39909554 17.10735893 C5.87815843 17.13423656 3.3591423 17.12946024 0.83813477 17.11694336 C-0.27561523 17.13919479 -0.27561523 17.13919479 -1.41186523 17.16189575 C-5.31243671 17.10678599 -7.04863673 16.63049548 -10.16017151 14.20277405 C-12.19335938 11.51757812 -12.19335938 11.51757812 -12.75585938 7.95507812 C-11.52221995 0.41617054 -6.77329006 -0.07084285 0 0 Z " fill="#85E26D" transform="translate(232.193359375,190.482421875)"/>
<path d="M0 0 C0.8119986 -0.0087616 1.62399719 -0.01752319 2.46060181 -0.02655029 C5.13704314 -0.04850569 7.81182397 -0.03400613 10.48828125 -0.01708984 C12.3524609 -0.02045911 14.21663841 -0.02531265 16.08081055 -0.03158569 C19.98475085 -0.03895177 23.88811853 -0.02826018 27.79199219 -0.00488281 C32.79261351 0.02360496 37.7918931 0.00719954 42.79246521 -0.02274513 C46.64101241 -0.04082537 50.48924224 -0.03505678 54.33779907 -0.02210617 C56.18136759 -0.01877416 58.02496505 -0.02285205 59.86849976 -0.03450394 C62.44696199 -0.04722493 65.02326114 -0.02782029 67.6015625 0 C68.36119293 -0.01012115 69.12082336 -0.02024231 69.9034729 -0.03067017 C73.84150656 0.04792546 75.65425955 0.53442888 78.81323242 2.96084595 C80.80078125 5.64697266 80.80078125 5.64697266 80.80078125 9.27197266 C79.45669523 13.80826298 79.45669523 13.80826298 76.80078125 15.64697266 C73.16162561 16.86002454 69.80265328 16.81826016 66.01220703 16.83984375 C64.82390793 16.85210999 64.82390793 16.85210999 63.61160278 16.86462402 C60.98977409 16.88943898 58.36799933 16.9059822 55.74609375 16.92041016 C54.85041561 16.92573383 53.95473747 16.93105751 53.03191757 16.93654251 C48.29293423 16.96325453 43.55397707 16.98263742 38.81494141 16.99707031 C34.89217884 17.01042246 30.96993487 17.03830094 27.04736328 17.07910156 C22.31059236 17.12837043 17.57429269 17.15318388 12.83727646 17.16029739 C11.03273245 17.16701599 9.22819921 17.18225389 7.42380142 17.2061882 C4.89802342 17.23778528 2.37406803 17.23788562 -0.15185547 17.23046875 C-0.89592651 17.24687408 -1.63999756 17.26327942 -2.40661621 17.28018188 C-6.33679843 17.23297146 -8.04444494 16.76963506 -11.16311646 14.29800415 C-13.19921875 11.64697266 -13.19921875 11.64697266 -13.82421875 8.64697266 C-12.26142016 1.14553941 -6.81619921 -0.09081759 0 0 Z " fill="#FC7FBB" transform="translate(121.19921875,190.35302734375)"/>
<path d="M0 0 C1.7773201 -0.02409439 1.7773201 -0.02409439 3.59054565 -0.04867554 C8.99949612 -0.09310354 14.40830224 -0.13461157 19.81738281 -0.15722656 C22.67317689 -0.17057292 25.5282576 -0.19844118 28.38378906 -0.23925781 C32.4970302 -0.29804474 36.60950529 -0.31588281 40.72314453 -0.33056641 C42.0003537 -0.35323578 43.27756287 -0.37590515 44.59347534 -0.39926147 C54.44484931 -0.375691 54.44484931 -0.375691 57.54003906 2.50292969 C59.76544813 6.04314873 59.90310973 8.08527124 59.23095703 12.19287109 C57.01232674 15.10004182 55.71150775 16.03268752 52.23095703 17.19287109 C50.37123136 17.29614555 48.50805612 17.34139512 46.64550781 17.35400391 C44.92824997 17.36841522 44.92824997 17.36841522 43.17630005 17.38311768 C41.93878998 17.38736755 40.70127991 17.39161743 39.42626953 17.39599609 C37.51936844 17.4045462 37.51936844 17.4045462 35.57394409 17.41326904 C32.88226745 17.42272243 30.1907024 17.42961765 27.49902344 17.43310547 C24.05682904 17.43858829 20.61503058 17.46261609 17.17296028 17.49107742 C13.8824268 17.51422572 10.59187304 17.51615479 7.30126953 17.52099609 C5.45107712 17.5395163 5.45107712 17.5395163 3.56350708 17.55841064 C2.4123642 17.55540955 1.26122131 17.55240845 0.07519531 17.54931641 C-0.93501678 17.55296204 -1.94522888 17.55660767 -2.98605347 17.56036377 C-7.19435561 17.00465912 -9.80997201 15.15194205 -12.76904297 12.19287109 C-13.21142536 8.21142953 -13.4320999 6.06170431 -10.95654297 2.81787109 C-7.34843084 0.13755922 -4.36479851 0.05375959 0 0 Z " fill="#03A6EA" transform="translate(86.76904296875,155.80712890625)"/>
<path d="M0 0 C1.31282959 0.00233139 2.62565918 0.00466278 3.97827148 0.00706482 C6.75246129 0.0132187 9.52583999 0.03585877 12.29980469 0.0715332 C15.84729961 0.11680522 19.39406109 0.13156002 22.94181824 0.13527012 C26.33631849 0.14077604 29.73057303 0.16415615 33.125 0.1875 C35.03140259 0.19554405 35.03140259 0.19554405 36.97631836 0.20375061 C38.75341187 0.2277317 38.75341187 0.2277317 40.56640625 0.25219727 C41.60611572 0.26283707 42.6458252 0.27347687 43.71704102 0.28443909 C46.73331506 0.57505146 48.87632817 1.16390533 51.5625 2.55859375 C54.04288907 6.27917735 54.02587203 8.15655946 53.5625 12.55859375 C51.34386971 15.46576448 50.04305071 16.39841018 46.5625 17.55859375 C44.67768174 17.67189246 42.78919442 17.72773795 40.90112305 17.75146484 C39.15867561 17.77555923 39.15867561 17.77555923 37.38102722 17.80014038 C32.07343072 17.84460384 26.76598132 17.88608395 21.45825195 17.90869141 C18.65778913 17.92202617 15.85805578 17.94987253 13.05786133 17.99072266 C9.02152257 18.04959711 4.98596456 18.0673592 0.94921875 18.08203125 C-0.30095535 18.10470062 -1.55112946 18.12737 -2.83918762 18.15072632 C-12.52477452 18.12715484 -12.52477452 18.12715484 -16.23120117 15.24462891 C-18.4375 12.55859375 -18.4375 12.55859375 -19.125 9.05859375 C-18.46674483 5.7074765 -17.85311168 3.91910635 -15.35424805 1.58639526 C-10.78320392 -0.86469688 -5.04034237 -0.07746231 0 0 Z " fill="#F8D663" transform="translate(182.4375,155.44140625)"/>
<path d="M0 0 C2.3125 0.43359375 2.3125 0.43359375 4.875 2.30859375 C7.54003211 6.24820644 7.47343331 9.40302484 7.48046875 14.0390625 C7.48379715 14.79649246 7.48712555 15.55392242 7.49055481 16.33430481 C7.49562301 17.94071851 7.49796317 19.54714276 7.49780273 21.15356445 C7.49997596 23.59409365 7.51809546 26.034161 7.53710938 28.47460938 C7.5400461 30.03775888 7.54202903 31.60091052 7.54296875 33.1640625 C7.55015427 33.88724167 7.55733978 34.61042084 7.56474304 35.35551453 C7.54112688 40.6806695 7.22768839 46.1500999 3.6875 50.37109375 C0.22157223 51.92164038 -3.01100278 52.24329849 -6.6875 51.43359375 C-9.625 48.99609375 -9.625 48.99609375 -11.6875 46.43359375 C-12.0175 46.10359375 -12.3475 45.77359375 -12.6875 45.43359375 C-12.98034376 39.80654529 -13.00160736 34.17690878 -13.03759766 28.54296875 C-13.05413794 26.64375539 -13.08140259 24.74460379 -13.11962891 22.84570312 C-13.1744574 20.1090461 -13.19628247 17.37385143 -13.2109375 14.63671875 C-13.23360687 13.79071106 -13.25627625 12.94470337 -13.27963257 12.07305908 C-13.26394309 7.68432807 -13.10689051 5.96985298 -10.31323242 2.39770508 C-6.67183708 -0.32614667 -4.39678809 -0.2159137 0 0 Z " fill="#FF6E5F" transform="translate(322.6875,395.56640625)"/>
<path d="M0 0 C0.80610718 -0.0038269 1.61221436 -0.00765381 2.44274902 -0.01159668 C4.14397432 -0.0143139 5.84524153 -0.0069659 7.54638672 0.00976562 C10.14775896 0.0311801 12.74636972 0.00995981 15.34765625 -0.015625 C17.00261025 -0.01298169 18.65756254 -0.00785663 20.3125 0 C21.47670471 -0.01214539 21.47670471 -0.01214539 22.66442871 -0.02453613 C26.24539117 0.03752252 28.26296006 0.23025848 31.14672852 2.43725586 C33.6901098 5.96541068 33.13044829 8.26346536 32.65625 12.53125 C30.84461733 15.20556489 29.77863923 15.49045359 26.65625 16.53125 C21.83233303 16.80632539 17.00924792 16.84456068 12.17822266 16.88134766 C10.58367321 16.89791356 8.98919822 16.92521257 7.39501953 16.96337891 C5.0884781 17.01826247 2.78366964 17.04003412 0.4765625 17.0546875 C-0.58617386 17.08869156 -0.58617386 17.08869156 -1.67037964 17.12338257 C-5.54259775 17.10692682 -7.21187766 16.63438904 -10.29736328 14.22119141 C-12.34375 11.53125 -12.34375 11.53125 -12.90625 7.96875 C-11.66261514 0.36875918 -6.82056258 -0.07115447 0 0 Z " fill="#01A8ED" transform="translate(198.34375,257.46875)"/>
<path d="M0 0 C2.206875 -0.061875 4.41375 -0.12375 6.6875 -0.1875 C8.54955078 -0.23970703 8.54955078 -0.23970703 10.44921875 -0.29296875 C15.20179198 0.09915775 17.68203836 1.68203836 21 5 C21.37109375 7.42578125 21.37109375 7.42578125 21.4375 10.3125 C21.47746094 11.25738281 21.51742187 12.20226562 21.55859375 13.17578125 C20.75939379 17.21649154 19.31701684 18.60100871 16 21 C13.18646503 21.57478503 10.54337785 21.47709971 7.6875 21.3125 C5.150625 21.209375 2.61375 21.10625 0 21 C0 14.07 0 7.14 0 0 Z " fill="#FF7264" transform="translate(181,395)"/>
<path d="M0 0 C2.206875 -0.061875 4.41375 -0.12375 6.6875 -0.1875 C8.54955078 -0.23970703 8.54955078 -0.23970703 10.44921875 -0.29296875 C15.20179198 0.09915775 17.68203836 1.68203836 21 5 C21.66609194 9.8795107 22.03922253 14.49491909 19.1875 18.625 C13.37963116 22.27566041 6.61937637 21.06072822 0 21 C0 14.07 0 7.14 0 0 Z " fill="#FF7163" transform="translate(375,395)"/>
<path d="M0 0 C14.19642857 -0.53571429 14.19642857 -0.53571429 17.8125 1.875 C20.92032282 4.89402788 21.19335399 6.6484519 21.3125 10.875 C21.28191932 14.40706833 21.27029697 15.61785601 19.1875 18.5625 C13.45333844 22.33066331 6.59693187 21.06052231 0 21 C0 14.07 0 7.14 0 0 Z " fill="#FF7061" transform="translate(246,395)"/>
<path d="M0 0 C2.96079529 1.81639801 5.42044164 3.84088328 7 7 C7.37766377 12.00404498 7.11200434 14.99885156 4 19 C1.56524321 21.52171239 0.18279299 21.96895968 -3.3125 22.5625 C-7.53382641 21.91856885 -9.60700457 20.8981725 -12.66015625 17.9765625 C-14.79329575 14.82971531 -14.96000172 12.14839065 -14.68359375 8.4140625 C-13.67482202 4.8516572 -11.98464078 3.116021 -9 1.00390625 C-5.71015798 -0.64744023 -3.59067534 -0.71813507 0 0 Z " fill="#FAD768" transform="translate(131,35)"/>
<path d="M0 0 C2.9375 1.9375 2.9375 1.9375 5 5 C5.70119833 8.47178687 5.72902647 11.53142875 5 15 C2.80977082 17.82424288 1.16982793 19.41508603 -2 21 C-7.86390959 21.67660495 -7.86390959 21.67660495 -10.7578125 19.953125 C-12.93626824 18.16405507 -14.72957812 16.54084375 -16 14 C-16.57538625 6.98028769 -16.57538625 6.98028769 -14.3125 3.125 C-9.69197615 -1.12088678 -6.07161441 -1.62632529 0 0 Z " fill="#85E071" transform="translate(93,36)"/>
<path d="M0 0 C3.1709869 2.091502 4.67158175 3.60247555 5.55078125 7.34375 C5.83711981 11.07176577 5.79355367 13.82014161 3.66796875 16.98046875 C0.68617196 19.81418533 -1.49334885 20.90222522 -5.5625 21.6875 C-10.12269601 20.7754608 -11.76422986 19.31281229 -15 16 C-16.20190901 12.39427296 -16.32670315 9.7897565 -16 6 C-14.19800549 2.99667582 -12.6888808 1.4096048 -9.6875 -0.375 C-6.04992671 -1.22094728 -3.60960985 -0.96685978 0 0 Z " fill="#FA7EBE" transform="translate(473,36)"/>
<path d="M0 0 C3.1709869 2.091502 4.67158175 3.60247555 5.55078125 7.34375 C5.83711981 11.07176577 5.79355367 13.82014161 3.66796875 16.98046875 C0.68617196 19.81418533 -1.49334885 20.90222522 -5.5625 21.6875 C-10.12269601 20.7754608 -11.76422986 19.31281229 -15 16 C-16.20190901 12.39427296 -16.32670315 9.7897565 -16 6 C-14.19800549 2.99667582 -12.6888808 1.4096048 -9.6875 -0.375 C-6.04992671 -1.22094728 -3.60960985 -0.96685978 0 0 Z " fill="#FAD767" transform="translate(51,36)"/>
<path d="M0 0 C4.10703441 0.85563217 5.55401113 2.24378009 8 5.625 C8.62491523 9.58279649 8.61006839 11.63363886 6.5 15.0625 C2.97873756 17.26328902 0.04560357 17.42914661 -4 16.625 C-6.5 15.0625 -6.5 15.0625 -8 12.625 C-8.5625 9.1875 -8.5625 9.1875 -8 5.625 C-5.55401113 2.24378009 -4.10703441 0.85563217 0 0 Z " fill="#A6A4BC" transform="translate(50,222.375)"/>
<path d="M0 0 C4.10703441 0.85563217 5.55401113 2.24378009 8 5.625 C8.62491523 9.58279649 8.61006839 11.63363886 6.5 15.0625 C2.97873756 17.26328902 0.04560357 17.42914661 -4 16.625 C-6.5 15.0625 -6.5 15.0625 -8 12.625 C-8.5625 9.1875 -8.5625 9.1875 -8 5.625 C-5.55401113 2.24378009 -4.10703441 0.85563217 0 0 Z " fill="#A6A4BC" transform="translate(50,155.375)"/>
<path d="M0 0 C3 2.0625 3 2.0625 5 5 C5.06944397 8.95830645 4.5699479 11.14507816 2.375 14.4375 C-0.9617771 16.63274809 -3.08548544 16.55921637 -7 16 C-9.4375 14.5 -9.4375 14.5 -11 12 C-11.80414661 7.95439643 -11.63828902 5.02126244 -9.4375 1.5 C-6.00863886 -0.61006839 -3.95779649 -0.62491523 0 0 Z " fill="#A6A4BD" transform="translate(53,122)"/>
<path d="M0 0 C4.14822958 0.8642145 5.60540961 2.14195943 8 5.625 C8.32588589 8.51302327 7.96479775 10.89041988 7 13.625 C4.65798844 16.50747576 3.20016837 16.59997895 -0.5 17.0625 C-4 16.625 -4 16.625 -6.4375 15.0625 C-8.63021887 11.64185857 -8.63007693 9.61548721 -8 5.625 C-5.55401113 2.24378009 -4.10703441 0.85563217 0 0 Z " fill="#A6A4BD" transform="translate(50,290.375)"/>
<path d="M0 0 C3 2.0625 3 2.0625 5 5 C5.07003547 8.99202191 4.58571574 11.15396616 2.3125 14.4375 C-0.77733292 16.52522494 -2.3380808 16.6725974 -6 16 C-8.875 13.9375 -8.875 13.9375 -11 11 C-11.63007693 7.00951279 -11.63021887 4.98314143 -9.4375 1.5625 C-6.01685857 -0.63021887 -3.99048721 -0.63007693 0 0 Z " fill="#A7A5BD" transform="translate(53,258)"/>
<path d="M0 0 C3 2.0625 3 2.0625 5 5 C5.07003547 8.99202191 4.58571574 11.15396616 2.3125 14.4375 C-0.77733292 16.52522494 -2.3380808 16.6725974 -6 16 C-8.875 13.9375 -8.875 13.9375 -11 11 C-11.63007693 7.00951279 -11.63021887 4.98314143 -9.4375 1.5625 C-6.01685857 -0.63021887 -3.99048721 -0.63007693 0 0 Z " fill="#A7A5BD" transform="translate(53,191)"/>
<path d="M0 0 C2.64 0 5.28 0 8 0 C8.33 0.99 8.66 1.98 9 3 C8.50556396 3.31855957 8.01112793 3.63711914 7.50170898 3.96533203 C4.58886687 6.09021724 2.37380502 7.73259707 1.32861328 11.27636719 C1.08949172 13.82935641 1.02968139 16.3112877 1.0625 18.875 C1.04638672 19.75414062 1.03027344 20.63328125 1.01367188 21.5390625 C0.97856267 23.69242696 0.98507407 25.84640107 1 28 C0.67 28 0.34 28 0 28 C0 18.76 0 9.52 0 0 Z " fill="#FF8379" transform="translate(375,429)"/>
</svg>
